<svg xmlns="http://www.w3.org/2000/svg" viewBox="0 0 764.07 237.98"><defs><style>.a,.d{fill:#b8add5;}.a{opacity:0.5;}.b{fill:#945e9f;}.c{fill:#edf0f0;}.e{fill:#fff;}.f{fill:#4faa66;}</style></defs><title>akebi</title><path class="a" d="M285.8,376.25a4.86,4.86,0,0,0-.37-0.52l0.23,0.25a16.13,16.13,0,0,1,1.91,2.42c0.55,0.88.67,1,2.56,2.52l0.29,0.23a44.09,44.09,0,0,1,9.78,10.22c0.15,0.23.36,0.51,0.6,0.83A15.44,15.44,0,0,1,304.44,403a16,16,0,0,1-3.68,9l-0.18.24c0,0.12,0,.27,0,0.46,0.15,0.34.5,1,.68,1.29a32,32,0,0,1,2,4c2.64,6.77.57,11.74-1.63,14.72a25,25,0,0,1-1.75,2.09L300,439.5l-0.09,0a58.76,58.76,0,0,1-.46,22.39c6.72,10,9.41,23.06,7.6,37.15-1.92,14.92-8.87,30.31-19.59,43.37C274,561.55,243.78,583.76,216.32,588a57.45,57.45,0,0,1-8.75.7c-9.34,0-17.53-2.54-24-7.5l-0.23-.17-0.21-.19c-9.32-8.59-14.57-20.94-15.08-35.25-17-1.55-29.91-8-37.64-18.76l-0.17-.23-0.14-.25c-9.07-15.44-9.44-34.8-1-54.52,8-18.76,23.32-36.34,43.13-49.51A128.3,128.3,0,0,1,217.49,404c15.71-3.17,31.57-3.42,44.66-.7a59.75,59.75,0,0,1,18.79,7,17.42,17.42,0,0,1,2.17-7.33c0.18-.31.35-0.61,0.53-0.88a27.05,27.05,0,0,0-5.6-5.57l-0.28-.22a27.23,27.23,0,0,1-6.61-7h0a12.75,12.75,0,0,1-3.84-9.42l0.35-6.31M191.5,571.34c5.67,4.24,13.37,5.64,22.9,4.17,10.76-1.66,23.39-7,35.55-15.12,11.33-7.54,21.28-16.8,27.29-25.4l0.14-.21,0.16-.19c9.31-11.28,15.33-24.47,17-37.13,1.53-11.92-.9-22.67-6.84-30.26l-1.91-2.44,0.77-3c2.24-8.8,2.15-17.38-.27-24.83l-1.14-3.52-1.81-3.18c-0.38-.67-0.78-1.32-1.18-1.93l0,0c-3.88-6-11.66-10.34-22.51-12.6-11.46-2.38-25.51-2.12-39.59.72a115.55,115.55,0,0,0-40.79,16.48c-17.79,11.81-31.46,27.42-38.5,43.94-6.74,15.82-6.68,31,.16,42.91,4.42,6,13.84,13.19,33.71,13.6l6.56,0.14L180.75,540C179.78,556.59,186,566.18,191.5,571.34Z" transform="translate(-123.03 -350.71)"/><path class="b" d="M254.47,513.41c35.61-23.64,49.76-63,32.92-88.6-15.38-23.75-73.33-22.71-111.68,2.77-38.6,25.64-56.86,67.1-40.14,95.56C157.51,553.81,225.12,536.46,254.47,513.41Z" transform="translate(-123.03 -350.71)"/><path class="c" d="M164.92,455.12c-23.7,26.64-20.28,61.83-20.28,61.83s21.6-14.69,43.67-16.07c29.55-1.68,43.44-8.43,64.11-24.1s10.52-28.42,30.3-50.43c-1.15-.41-31.3-7-53.41-3.26C201,427.9,178.24,440.15,164.92,455.12Z" transform="translate(-123.03 -350.71)"/><path class="d" d="M246.49,476.08c11-8.34,13.73-16.22,18-25.41,2.53-5.5,17.13-19.88,11-19.9-3,0-6.53,7.26-10.51,7.93-19.09,3.25-47.44,6.59-61.84,15.18-15.77,9.41-44.67,41.24-53.24,54.13-4.48,6.75,18.65-4.58,26.27-7.43a47.5,47.5,0,0,1,13.46-3.12C215.83,496,228.15,490,246.49,476.08Z" transform="translate(-123.03 -350.71)"/><ellipse class="d" cx="206.12" cy="454.92" rx="8.06" ry="8.13" transform="translate(-380.57 289.83) rotate(-87.44)"/><ellipse class="d" cx="189.24" cy="468.85" rx="8.06" ry="8.13" transform="translate(-410.63 286.27) rotate(-87.44)"/><ellipse class="d" cx="195.89" cy="458.51" rx="8.06" ry="8.13" transform="translate(-393.93 283.03) rotate(-87.44)"/><ellipse class="d" cx="218.69" cy="454.03" rx="8.06" ry="8.13" transform="matrix(0.04, -1, 1, 0.04, -367.68, 301.54)"/><ellipse class="d" cx="227.1" cy="447.79" rx="8.06" ry="8.13" transform="translate(-353.4 303.98) rotate(-87.44)"/><ellipse class="d" cx="237.69" cy="446.81" rx="8.06" ry="8.13" transform="translate(-342.31 313.62) rotate(-87.44)"/><ellipse class="d" cx="247.99" cy="442.75" rx="8.06" ry="8.13" transform="translate(-328.41 320.03) rotate(-87.44)"/><ellipse class="d" cx="257.04" cy="441.05" rx="8.06" ry="8.13" transform="translate(-318.07 327.45) rotate(-87.44)"/><ellipse class="d" cx="268.33" cy="437.83" rx="7.06" ry="7.11" transform="translate(-304.07 335.64) rotate(-87.44)"/><ellipse class="d" cx="174.29" cy="485.07" rx="8.06" ry="8.13" transform="translate(-441.11 286.84) rotate(-87.44)"/><ellipse class="d" cx="155.67" cy="503.8" rx="7.34" ry="7.4" transform="translate(-477.6 286.13) rotate(-87.44)"/><ellipse class="d" cx="164.49" cy="496.46" rx="7.34" ry="7.4" transform="translate(-461.85 287.93) rotate(-87.44)"/><ellipse class="d" cx="178.94" cy="473.89" rx="8.06" ry="8.13" transform="translate(-425.5 280.79) rotate(-87.44)"/><ellipse class="d" cx="169.95" cy="492.95" rx="8.06" ry="8.13" transform="translate(-453.12 290.03) rotate(-87.44)"/><ellipse class="c" cx="177.23" cy="483.68" rx="5.99" ry="6.04" transform="translate(-436.92 288.44) rotate(-87.44)"/><ellipse class="c" cx="191.26" cy="472.03" rx="5.99" ry="6.04" transform="translate(-411.86 291.33) rotate(-87.44)"/><ellipse class="c" cx="205.57" cy="464.19" rx="5.99" ry="6.04" transform="translate(-390.37 298.13) rotate(-87.44)"/><ellipse class="c" cx="220.68" cy="456.19" rx="5.99" ry="6.04" transform="translate(-367.93 305.59) rotate(-87.44)"/><ellipse class="c" cx="239.61" cy="448.35" rx="5.99" ry="6.04" transform="translate(-342.01 317) rotate(-87.44)"/><ellipse class="c" cx="254.96" cy="443.06" rx="5.99" ry="6.04" transform="translate(-322.06 327.29) rotate(-87.44)"/><ellipse class="c" cx="249.2" cy="459.8" rx="5.99" ry="6.04" transform="translate(-344.29 337.54) rotate(-87.44)"/><ellipse class="c" cx="234.99" cy="467.42" rx="5.99" ry="6.04" transform="translate(-365.47 330.61) rotate(-87.44)"/><ellipse class="c" cx="219.84" cy="475.13" rx="5.99" ry="6.04" transform="translate(-387.66 322.84) rotate(-87.44)"/><ellipse class="c" cx="204.42" cy="483.69" rx="5.99" ry="6.04" transform="translate(-410.95 315.62) rotate(-87.44)"/><ellipse class="c" cx="190.34" cy="492.65" rx="5.99" ry="6.04" transform="translate(-433.34 310.11) rotate(-87.44)"/><path class="e" d="M248.79,428.29a261.93,261.93,0,0,1,26.55,1.54,109.33,109.33,0,0,0-10.07,18.69c-3.91,8.7-7,15.58-16.82,23-19.45,14.74-32.16,21.17-60.52,22.78h0c-14,.88-28.74,8.62-39.1,15.34a126.18,126.18,0,0,1,5.83-23.52c3.82-10.63,8.93-19.6,15.21-26.65,13.07-14.69,35.15-25.6,60.59-29.92a112.45,112.45,0,0,1,18.37-1.28m0-6.57a119.67,119.67,0,0,0-19.47,1.37c-28.36,4.82-51.08,17.06-64.4,32-15.4,17.32-20.92,41-22.89,55.44a5.77,5.77,0,0,0,8.94,5.53c9.4-6.27,24-14.38,37.33-15.22,29.55-1.68,43.44-8.43,64.11-24.1,18.19-13.79,16.32-26.46,29.1-44.31a5.72,5.72,0,0,0-4.05-9,268,268,0,0,0-28.68-1.73h0Z" transform="translate(-123.03 -350.71)"/><path class="b" d="M282.42,538.61c23.29-28.23,25.09-64,4.91-80.79-18.52-15.63-65.73-.35-90.81,30.08-25.24,30.61-29.88,69.13-9.1,88.28C213,595.85,264.11,564.8,282.42,538.61Z" transform="translate(-123.03 -350.71)"/><path class="c" d="M194.54,513.15c-12.78,27.73-1.23,55.7-1.23,55.7s14-17.41,31.77-24c23.79-8.73,33.49-17.72,46.53-35.71s1.54-25.9,12.27-48.86c-1-.05-27.39,2-44.56,10.63C217.29,481.88,201.73,497.57,194.54,513.15Z" transform="translate(-123.03 -350.71)"/><path class="d" d="M266.59,510c6.94-9.57,7.21-16.71,8.38-25.29,0.7-5.14,9.09-20.55,4.09-19.05-2.43.73-3.54,7.57-6.64,9.12-14.83,7.41-37.23,17.21-46.88,27.83-10.57,11.63-26.33,44.9-30.14,57.6-2,6.64,14.14-8.4,19.67-12.63a40.67,40.67,0,0,1,10.25-5.91C246.43,533.94,255,526,266.59,510Z" transform="translate(-123.03 -350.71)"/><ellipse class="d" cx="228.25" cy="502.72" rx="6.96" ry="6.9" transform="translate(-240.48 -278.48) rotate(-14.35)"/><ellipse class="d" cx="217.88" cy="518.34" rx="6.96" ry="6.9" transform="translate(-244.67 -280.57) rotate(-14.35)"/><ellipse class="d" cx="220.76" cy="508.21" rx="6.96" ry="6.9" transform="translate(-242.07 -280.17) rotate(-14.35)"/><ellipse class="d" cx="238.33" cy="498.87" rx="6.96" ry="6.9" transform="translate(-239.21 -276.11) rotate(-14.35)"/><ellipse class="d" cx="243.66" cy="491.66" rx="6.96" ry="6.9" transform="translate(-237.26 -275.01) rotate(-14.35)"/><ellipse class="d" cx="252.09" cy="488.22" rx="6.96" ry="6.9" transform="translate(-236.14 -273.03) rotate(-14.35)"/><ellipse class="d" cx="259.52" cy="482.33" rx="6.96" ry="6.9" transform="translate(-234.45 -271.37) rotate(-14.35)"/><ellipse class="d" cx="266.51" cy="478.69" rx="6.96" ry="6.9" transform="translate(-233.33 -269.75) rotate(-14.35)"/><ellipse class="d" cx="274.95" cy="473.24" rx="6.09" ry="6.04" transform="translate(-231.72 -267.83) rotate(-14.35)"/><ellipse class="d" cx="209.68" cy="535.35" rx="6.96" ry="6.9" transform="translate(-249.14 -282.07) rotate(-14.35)"/><ellipse class="d" cx="199.09" cy="555.33" rx="6.34" ry="6.29" transform="translate(-254.42 -284.07) rotate(-14.35)"/><ellipse class="d" cx="204.49" cy="547.12" rx="6.34" ry="6.29" transform="translate(-252.22 -282.99) rotate(-14.35)"/><ellipse class="d" cx="210.7" cy="525.03" rx="6.96" ry="6.9" transform="translate(-246.55 -282.14) rotate(-14.35)"/><ellipse class="d" cx="208.08" cy="542.89" rx="6.96" ry="6.9" transform="translate(-251.06 -282.23) rotate(-14.35)"/><ellipse class="c" cx="211.74" cy="533.49" rx="5.17" ry="5.13" transform="translate(-248.61 -281.62) rotate(-14.35)"/><ellipse class="c" cx="220.33" cy="520.44" rx="5.17" ry="5.13" transform="translate(-245.12 -279.89) rotate(-14.35)"/><ellipse class="c" cx="230.1" cy="510.46" rx="5.17" ry="5.13" transform="translate(-242.34 -277.78) rotate(-14.35)"/><ellipse class="c" cx="240.49" cy="500.14" rx="5.17" ry="5.13" transform="translate(-239.46 -275.53) rotate(-14.35)"/><ellipse class="c" cx="254.05" cy="489" rx="5.17" ry="5.13" transform="translate(-236.27 -272.52) rotate(-14.35)"/><ellipse class="c" cx="265.31" cy="480.85" rx="5.17" ry="5.13" transform="translate(-233.9 -269.98) rotate(-14.35)"/><ellipse class="c" cx="264.76" cy="496" rx="5.17" ry="5.13" transform="translate(-237.67 -269.65) rotate(-14.35)"/><ellipse class="c" cx="255.01" cy="505.78" rx="5.17" ry="5.13" transform="translate(-240.4 -271.76) rotate(-14.35)"/><ellipse class="c" cx="244.52" cy="515.87" rx="5.17" ry="5.13" transform="translate(-243.23 -274.04) rotate(-14.35)"/><ellipse class="c" cx="234.02" cy="526.72" rx="5.17" ry="5.13" transform="translate(-246.24 -276.31) rotate(-14.35)"/><ellipse class="c" cx="224.71" cy="537.56" rx="5.17" ry="5.13" transform="translate(-249.22 -278.27) rotate(-14.35)"/><path class="e" d="M280.06,465.64h0m-2.72.52a98.11,98.11,0,0,0-3.17,16.47c-1,8-1.82,14.27-7.87,22.62-7,9.6-12.17,15.4-18,20-6.48,5.15-14.34,9.27-25.47,13.36h0c-10.71,4-20.39,13.12-27.23,21a105.9,105.9,0,0,1-.79-18.46,68.33,68.33,0,0,1,5.74-25.27c7-15.1,22.18-29.37,41.75-39.15,10.52-5.26,26.49-8.89,35.08-10.59m2.45-7.07a5.1,5.1,0,0,0-.93.09c-10.42,1.93-27.91,5.89-39.53,11.69-22,11-37.6,26.7-44.78,42.28-8.31,18-6.93,38.79-5,51.12a4.94,4.94,0,0,0,8.7,2.3c6.14-7.47,16.05-17.75,26.8-21.76,23.79-8.73,33.49-17.72,46.53-35.71,11.47-15.83,6.78-25.74,12.81-43.54a4.9,4.9,0,0,0-4.63-6.47h0Z" transform="translate(-123.03 -350.71)"/><path class="f" d="M288.72,433.29h-1l0-3.58-1.39,0a5.27,5.27,0,0,1,1.88-4.35l0.16-.15c0.39-.48.81-0.93,1.22-1.38a16.92,16.92,0,0,0,1.19-1.37c0.28-.38.44-0.59-0.07-1.91a20.2,20.2,0,0,0-1.2-2.4A14.8,14.8,0,0,1,287.2,411a13,13,0,0,1,1.42-7.19,18.62,18.62,0,0,1,1.43-2.11,4.69,4.69,0,0,0,1-1.7c0-.57,0-0.71-1-2-0.35-.46-0.74-1-1.14-1.6a32.19,32.19,0,0,0-7-7.08l-0.28-.23a20.94,20.94,0,0,1-5.5-5.84c-0.07-.1-0.28-0.33-0.42-0.48a6.55,6.55,0,0,1-2.18-4.8l7.07,0.39a1.8,1.8,0,0,0-.2-1,7.52,7.52,0,0,0,.53.61,10.2,10.2,0,0,1,1.2,1.5,14.19,14.19,0,0,0,4,4.09l0.29,0.23a38.41,38.41,0,0,1,8.45,8.74c0.27,0.42.56,0.79,0.86,1.2a9.25,9.25,0,0,1,2.38,6.62,10,10,0,0,1-2.42,5.55,12.84,12.84,0,0,0-.92,1.33c-0.52.92-.55,1.8-0.52,3.57,0,1.29.55,2.29,1.47,3.95a26.32,26.32,0,0,1,1.6,3.26c0.83,2.12,1.64,5.33-.83,8.68a22.74,22.74,0,0,1-1.71,2c-0.34.37-.66,0.71-0.9,1s-0.31.36-.45,0.51l0.06,2.16-2.76.7A8.19,8.19,0,0,1,288.72,433.29Z" transform="translate(-123.03 -350.71)"/><path class="b" d="M381.08,424a54,54,0,0,1,19-11.31,64.91,64.91,0,0,1,21.55-3.77,59.17,59.17,0,0,1,19.29,2.8,37.56,37.56,0,0,1,13.25,7.54,29.8,29.8,0,0,1,7.65,10.88A34,34,0,0,1,464.27,443v52.16q0,5.39.22,9.91t0.65,8.62H447.89q-0.65-7.76-.65-15.52h-0.43q-6.47,9.92-15.3,14A48.27,48.27,0,0,1,411,516.23a47,47,0,0,1-13.58-1.94,33.12,33.12,0,0,1-11.31-5.82,27.74,27.74,0,0,1-7.65-9.59,29.72,29.72,0,0,1-2.8-13.25q0-9.91,4.42-16.59a33.45,33.45,0,0,1,12.07-10.88,58.24,58.24,0,0,1,17.89-6,124.35,124.35,0,0,1,21.87-1.83h14.22V446a21.32,21.32,0,0,0-1.51-7.76,21,21,0,0,0-4.53-7,21.63,21.63,0,0,0-7.54-5,28.72,28.72,0,0,0-10.78-1.83A39.78,39.78,0,0,0,412,425.5a43.49,43.49,0,0,0-7.65,2.69A33.61,33.61,0,0,0,398.1,432q-2.8,2.16-5.39,4.09Zm54.74,40.52a136.31,136.31,0,0,0-14.12.75,55.39,55.39,0,0,0-13.15,2.91,25.33,25.33,0,0,0-9.7,6,13.63,13.63,0,0,0-3.77,9.91q0,8.84,5.93,12.71t16.06,3.88A31.11,31.11,0,0,0,430.64,498a25.5,25.5,0,0,0,9.05-7,27.18,27.18,0,0,0,5-9.59A38,38,0,0,0,446.16,471v-6.47H435.82Z" transform="translate(-123.03 -350.71)"/><path class="b" d="M492.5,350.71h19.4V455.89l44-44.18H582.8L535.17,458l51.72,55.6H559.31l-47.41-53v53H492.5V350.71Z" transform="translate(-123.03 -350.71)"/><path class="b" d="M619,469.68a25.61,25.61,0,0,0,2.91,12.18,30.27,30.27,0,0,0,7.65,9.38,35.3,35.3,0,0,0,11,6,39.36,39.36,0,0,0,12.93,2.16,28.93,28.93,0,0,0,15.73-4.2,50.68,50.68,0,0,0,12.28-11.1l14.66,11.21Q680,516.23,650.9,516.23A56.28,56.28,0,0,1,629,512.13a47.54,47.54,0,0,1-16.59-11.31,50.13,50.13,0,0,1-10.45-17,60.12,60.12,0,0,1-3.66-21.23,55.8,55.8,0,0,1,4-21.23,52.65,52.65,0,0,1,11-17A50.18,50.18,0,0,1,630,413a53.77,53.77,0,0,1,21.12-4.09q13.58,0,23,4.74A45.42,45.42,0,0,1,689.48,426a49,49,0,0,1,8.73,17.24,71.85,71.85,0,0,1,2.69,19.5v6.9H619Zm61.21-15.52a41,41,0,0,0-2-11.85,26.15,26.15,0,0,0-5.5-9.37,25.35,25.35,0,0,0-9.16-6.25,33.53,33.53,0,0,0-12.82-2.26,31.15,31.15,0,0,0-13,2.69,31.77,31.77,0,0,0-10,7,32.38,32.38,0,0,0-6.36,9.59A26.39,26.39,0,0,0,619,454.16h61.21Z" transform="translate(-123.03 -350.71)"/><path class="b" d="M724.18,350.71h19.4v75.43H744a35.39,35.39,0,0,1,14.87-12.61,47.4,47.4,0,0,1,20.69-4.63A54.14,54.14,0,0,1,801,413a48.16,48.16,0,0,1,16.38,11.31,50.25,50.25,0,0,1,10.45,17,60.22,60.22,0,0,1,3.66,21.23,59.3,59.3,0,0,1-3.66,21.12,51.62,51.62,0,0,1-10.45,17A47.38,47.38,0,0,1,801,512.13a54.14,54.14,0,0,1-21.44,4.09,47.61,47.61,0,0,1-20.15-4.53A36.92,36.92,0,0,1,744,499h-0.43v14.66h-19.4V350.71Zm53,147.41a35,35,0,0,0,14-2.69,30.91,30.91,0,0,0,10.56-7.33,32.35,32.35,0,0,0,6.68-11.21,44.5,44.5,0,0,0,0-28.66A32.41,32.41,0,0,0,801.76,437a31,31,0,0,0-10.56-7.33,37.77,37.77,0,0,0-28,0A30.94,30.94,0,0,0,752.63,437a32.31,32.31,0,0,0-6.68,11.21,44.52,44.52,0,0,0,0,28.66,32.25,32.25,0,0,0,6.68,11.21,30.85,30.85,0,0,0,10.56,7.33A35,35,0,0,0,777.19,498.13Z" transform="translate(-123.03 -350.71)"/><path class="b" d="M852.84,374.85a14.35,14.35,0,1,1,4.2,10A13.68,13.68,0,0,1,852.84,374.85Zm4.53,36.64h19.4V513.64h-19.4V411.49Z" transform="translate(-123.03 -350.71)"/><path class="b" d="M385.76,559.19a5,5,0,0,0-1.44-1.22,4.15,4.15,0,0,0-2.1-.49,4,4,0,0,0-2,.49,1.57,1.57,0,0,0-.86,1.44,1.64,1.64,0,0,0,.49,1.24,3.88,3.88,0,0,0,1.17.77,6.81,6.81,0,0,0,1.44.44l1.31,0.25a15.32,15.32,0,0,1,2,.62,5.5,5.5,0,0,1,1.6.95,4.11,4.11,0,0,1,1.06,1.42,4.89,4.89,0,0,1,.38,2,4.8,4.8,0,0,1-.62,2.5,5.23,5.23,0,0,1-1.6,1.7,6.75,6.75,0,0,1-2.24.95,11.19,11.19,0,0,1-2.53.29,10,10,0,0,1-3.77-.66,6.78,6.78,0,0,1-2.9-2.41l2.48-2a10.16,10.16,0,0,0,1.79,1.42,4.42,4.42,0,0,0,2.41.62,6.34,6.34,0,0,0,1.26-.13,3.9,3.9,0,0,0,1.13-.4,2.47,2.47,0,0,0,.8-0.69,1.59,1.59,0,0,0,.31-1,1.67,1.67,0,0,0-.46-1.2,3.3,3.3,0,0,0-1.09-.75,7.94,7.94,0,0,0-1.35-.44l-1.26-.27q-1.06-.25-2-0.58a6.08,6.08,0,0,1-1.68-.87,4,4,0,0,1-1.17-1.38,4.46,4.46,0,0,1-.44-2.08,4.71,4.71,0,0,1,.56-2.35,5,5,0,0,1,1.5-1.66,6.76,6.76,0,0,1,2.11-1,8.91,8.91,0,0,1,2.39-.33,8.78,8.78,0,0,1,3.35.66,5.32,5.32,0,0,1,2.55,2.19Z" transform="translate(-123.03 -350.71)"/><path class="b" d="M395.24,564.69a4.33,4.33,0,0,0,.49,2.06,5.12,5.12,0,0,0,1.29,1.59,6,6,0,0,0,1.86,1,6.66,6.66,0,0,0,2.19.36,4.9,4.9,0,0,0,2.66-.71,8.56,8.56,0,0,0,2.08-1.88l2.48,1.9a9.13,9.13,0,0,1-7.66,3.54,9.53,9.53,0,0,1-3.7-.69,8.05,8.05,0,0,1-2.81-1.91,8.49,8.49,0,0,1-1.77-2.88,10.17,10.17,0,0,1-.62-3.59,9.43,9.43,0,0,1,.67-3.59,8.9,8.9,0,0,1,1.86-2.88,8.5,8.5,0,0,1,2.83-1.91,9.1,9.1,0,0,1,3.57-.69,8.54,8.54,0,0,1,3.88.8,7.68,7.68,0,0,1,2.61,2.1,8.29,8.29,0,0,1,1.48,2.92,12.15,12.15,0,0,1,.46,3.3v1.17H395.24Zm10.35-2.62a6.94,6.94,0,0,0-.35-2,4.42,4.42,0,0,0-.93-1.59,4.28,4.28,0,0,0-1.55-1.06,5.68,5.68,0,0,0-2.17-.38,5.27,5.27,0,0,0-2.21.46,5.36,5.36,0,0,0-1.7,1.18,5.47,5.47,0,0,0-1.08,1.62,4.46,4.46,0,0,0-.38,1.77H405.6Z" transform="translate(-123.03 -350.71)"/><path class="b" d="M425.39,559.44a6.9,6.9,0,0,0-1.91-1.44,5.37,5.37,0,0,0-2.39-.49,5.28,5.28,0,0,0-2.35.49,4.79,4.79,0,0,0-1.68,1.35,6.06,6.06,0,0,0-1,2,7.73,7.73,0,0,0-.35,2.31,6.46,6.46,0,0,0,.4,2.28,5.73,5.73,0,0,0,1.13,1.88A5.19,5.19,0,0,0,419,569a5.56,5.56,0,0,0,2.3.46,5.25,5.25,0,0,0,2.37-.49,6.07,6.07,0,0,0,1.82-1.44l2.33,2.33a7.35,7.35,0,0,1-3,2,10.38,10.38,0,0,1-3.59.62,9.88,9.88,0,0,1-3.66-.66,8.46,8.46,0,0,1-2.86-1.84,8.14,8.14,0,0,1-1.86-2.84,9.88,9.88,0,0,1-.66-3.66,10,10,0,0,1,.66-3.68,8.22,8.22,0,0,1,4.69-4.76,9.75,9.75,0,0,1,3.7-.67,9.92,9.92,0,0,1,3.63.67,8,8,0,0,1,3,2.06Z" transform="translate(-123.03 -350.71)"/><path class="b" d="M429.77,563.49a8.79,8.79,0,0,1,.71-3.54,9.22,9.22,0,0,1,2-2.88,9.29,9.29,0,0,1,13.05,0,9.23,9.23,0,0,1,2,2.88,8.79,8.79,0,0,1,.71,3.54,9,9,0,0,1-2.66,6.43,9.26,9.26,0,0,1-2.92,1.93,9.34,9.34,0,0,1-10.14-1.93A9,9,0,0,1,429.77,563.49Zm3.5,0a7.09,7.09,0,0,0,.4,2.42,5.47,5.47,0,0,0,1.13,1.9,5.22,5.22,0,0,0,1.79,1.24,6.39,6.39,0,0,0,4.74,0,5.23,5.23,0,0,0,1.79-1.24,5.47,5.47,0,0,0,1.13-1.9,7.53,7.53,0,0,0,0-4.85,5.47,5.47,0,0,0-1.13-1.9,5.23,5.23,0,0,0-1.79-1.24,6.39,6.39,0,0,0-4.74,0,5.22,5.22,0,0,0-1.79,1.24,5.47,5.47,0,0,0-1.13,1.9A7.1,7.1,0,0,0,433.27,563.49Z" transform="translate(-123.03 -350.71)"/><path class="b" d="M452.26,554.85h3.28v2.66h0.07a4.84,4.84,0,0,1,2.15-2.24,7.13,7.13,0,0,1,3.54-.86,7.51,7.51,0,0,1,2.39.38,5.39,5.39,0,0,1,2,1.18,5.72,5.72,0,0,1,1.37,2.06,7.87,7.87,0,0,1,.51,3v11.12h-3.28V561.92a5.77,5.77,0,0,0-.33-2.06,3.77,3.77,0,0,0-.87-1.38,3.29,3.29,0,0,0-1.26-.77,4.63,4.63,0,0,0-1.48-.24,5.35,5.35,0,0,0-1.9.33,4,4,0,0,0-1.53,1,4.89,4.89,0,0,0-1,1.8,8.21,8.21,0,0,0-.36,2.59v8.9h-3.28V554.85Z" transform="translate(-123.03 -350.71)"/><path class="b" d="M489.85,572.13h-3.28v-2.48H486.5a6.25,6.25,0,0,1-2.61,2.15,8,8,0,0,1-3.41.77,9.17,9.17,0,0,1-3.63-.69,8,8,0,0,1-2.77-1.93,8.73,8.73,0,0,1-1.77-2.88,10,10,0,0,1-.62-3.57,10.17,10.17,0,0,1,.62-3.59,8.49,8.49,0,0,1,1.77-2.88,8.15,8.15,0,0,1,2.77-1.91,9.17,9.17,0,0,1,3.63-.69,8,8,0,0,1,3.5.78,6,6,0,0,1,2.52,2.13h0.07V544.57h3.28v27.56Zm-9-2.62a5.92,5.92,0,0,0,2.37-.46,5.23,5.23,0,0,0,1.79-1.24,5.47,5.47,0,0,0,1.13-1.9,7.53,7.53,0,0,0,0-4.85,5.47,5.47,0,0,0-1.13-1.9,5.23,5.23,0,0,0-1.79-1.24,6.39,6.39,0,0,0-4.74,0,5.22,5.22,0,0,0-1.79,1.24,5.47,5.47,0,0,0-1.13,1.9,7.53,7.53,0,0,0,0,4.85,5.47,5.47,0,0,0,1.13,1.9,5.22,5.22,0,0,0,1.79,1.24A5.91,5.91,0,0,0,480.88,569.5Z" transform="translate(-123.03 -350.71)"/><path class="b" d="M522.26,572a9.26,9.26,0,0,1-.67,3.59,8.18,8.18,0,0,1-1.91,2.81,8.68,8.68,0,0,1-3,1.84,10.93,10.93,0,0,1-3.86.66,14.19,14.19,0,0,1-4.54-.69,11,11,0,0,1-3.92-2.41l2.22-2.77a9.07,9.07,0,0,0,2.77,2.1,7.8,7.8,0,0,0,3.39.71,7.57,7.57,0,0,0,3-.53,5.21,5.21,0,0,0,1.91-1.37,4.92,4.92,0,0,0,1-1.91,8.27,8.27,0,0,0,.29-2.17v-2.55h-0.11a5.77,5.77,0,0,1-2.57,2.32,8.06,8.06,0,0,1-3.41.75,9.06,9.06,0,0,1-3.52-.67,8.36,8.36,0,0,1-2.79-1.86,8.47,8.47,0,0,1-1.82-2.81,9.3,9.3,0,0,1-.66-3.52,10.06,10.06,0,0,1,.62-3.55,8.69,8.69,0,0,1,1.77-2.9,8,8,0,0,1,2.77-1.93,9.16,9.16,0,0,1,3.63-.69,8,8,0,0,1,3.41.77,6.25,6.25,0,0,1,2.61,2.15H519v-2.48h3.28V572Zm-9-14.51a5.93,5.93,0,0,0-2.37.46,5.23,5.23,0,0,0-1.79,1.24,5.45,5.45,0,0,0-1.13,1.9,7.1,7.1,0,0,0-.4,2.42,5.81,5.81,0,0,0,1.53,4.21,6.24,6.24,0,0,0,8.31,0,5.81,5.81,0,0,0,1.53-4.21,7.1,7.1,0,0,0-.4-2.42,5.47,5.47,0,0,0-1.13-1.9,5.24,5.24,0,0,0-1.79-1.24A5.93,5.93,0,0,0,513.29,557.47Z" transform="translate(-123.03 -350.71)"/><path class="b" d="M529.7,564.69a4.33,4.33,0,0,0,.49,2.06,5.12,5.12,0,0,0,1.29,1.59,6,6,0,0,0,1.86,1,6.66,6.66,0,0,0,2.19.36,4.9,4.9,0,0,0,2.66-.71,8.56,8.56,0,0,0,2.08-1.88l2.48,1.9a9.13,9.13,0,0,1-7.66,3.54,9.54,9.54,0,0,1-3.7-.69,8.06,8.06,0,0,1-2.81-1.91,8.49,8.49,0,0,1-1.77-2.88,10.18,10.18,0,0,1-.62-3.59,9.43,9.43,0,0,1,.67-3.59,8.89,8.89,0,0,1,1.86-2.88,8.5,8.5,0,0,1,2.83-1.91,9.11,9.11,0,0,1,3.57-.69,8.54,8.54,0,0,1,3.88.8,7.68,7.68,0,0,1,2.61,2.1,8.27,8.27,0,0,1,1.48,2.92,12.15,12.15,0,0,1,.46,3.3v1.17H529.7Zm10.35-2.62a6.9,6.9,0,0,0-.35-2,4.4,4.4,0,0,0-.93-1.59,4.27,4.27,0,0,0-1.55-1.06,5.68,5.68,0,0,0-2.17-.38,5.27,5.27,0,0,0-2.21.46,5.35,5.35,0,0,0-1.7,1.18,5.5,5.5,0,0,0-1.08,1.62,4.47,4.47,0,0,0-.38,1.77h10.35Z" transform="translate(-123.03 -350.71)"/><path class="b" d="M547.49,554.85h3.28v2.66h0.07a4.84,4.84,0,0,1,2.15-2.24,7.13,7.13,0,0,1,3.54-.86,7.52,7.52,0,0,1,2.39.38,5.39,5.39,0,0,1,2,1.18,5.72,5.72,0,0,1,1.37,2.06,7.88,7.88,0,0,1,.51,3v11.12h-3.28V561.92a5.77,5.77,0,0,0-.33-2.06,3.77,3.77,0,0,0-.87-1.38,3.29,3.29,0,0,0-1.26-.77,4.64,4.64,0,0,0-1.48-.24,5.36,5.36,0,0,0-1.9.33,4,4,0,0,0-1.53,1,4.9,4.9,0,0,0-1,1.8,8.21,8.21,0,0,0-.36,2.59v8.9h-3.28V554.85Z" transform="translate(-123.03 -350.71)"/><path class="b" d="M570.24,564.69a4.33,4.33,0,0,0,.49,2.06,5.12,5.12,0,0,0,1.29,1.59,6,6,0,0,0,1.86,1,6.66,6.66,0,0,0,2.19.36,4.9,4.9,0,0,0,2.66-.71,8.56,8.56,0,0,0,2.08-1.88l2.48,1.9a9.13,9.13,0,0,1-7.66,3.54,9.54,9.54,0,0,1-3.7-.69,8.06,8.06,0,0,1-2.81-1.91,8.49,8.49,0,0,1-1.77-2.88,10.18,10.18,0,0,1-.62-3.59,9.43,9.43,0,0,1,.67-3.59,8.89,8.89,0,0,1,1.86-2.88,8.5,8.5,0,0,1,2.83-1.91,9.11,9.11,0,0,1,3.57-.69,8.54,8.54,0,0,1,3.88.8,7.68,7.68,0,0,1,2.61,2.1,8.27,8.27,0,0,1,1.48,2.92,12.15,12.15,0,0,1,.46,3.3v1.17H570.24Zm10.35-2.62a6.9,6.9,0,0,0-.35-2,4.4,4.4,0,0,0-.93-1.59,4.27,4.27,0,0,0-1.55-1.06,5.68,5.68,0,0,0-2.17-.38,5.27,5.27,0,0,0-2.21.46,5.35,5.35,0,0,0-1.7,1.18,5.5,5.5,0,0,0-1.08,1.62,4.47,4.47,0,0,0-.38,1.77H580.6Z" transform="translate(-123.03 -350.71)"/><path class="b" d="M588,554.85h3.28v2.66h0.07a4.71,4.71,0,0,1,.88-1.26,5.9,5.9,0,0,1,1.22-1,6.44,6.44,0,0,1,1.48-.64,5.63,5.63,0,0,1,1.6-.24,4.6,4.6,0,0,1,1.46.22l-0.15,3.54q-0.4-.11-0.8-0.18a4.45,4.45,0,0,0-.8-0.07,4.83,4.83,0,0,0-3.68,1.35,5.93,5.93,0,0,0-1.28,4.19v8.68H588V554.85Z" transform="translate(-123.03 -350.71)"/><path class="b" d="M601.59,557A9.14,9.14,0,0,1,604.8,555a11,11,0,0,1,3.65-.64,10,10,0,0,1,3.26.47,6.35,6.35,0,0,1,2.24,1.28,5,5,0,0,1,1.29,1.84,5.75,5.75,0,0,1,.42,2.17V569q0,0.91,0,1.68t0.11,1.46H612.9q-0.11-1.31-.11-2.62h-0.07a6.29,6.29,0,0,1-2.59,2.37,8.17,8.17,0,0,1-3.46.69,7.94,7.94,0,0,1-2.3-.33,5.6,5.6,0,0,1-1.91-1,4.71,4.71,0,0,1-1.29-1.62,5,5,0,0,1-.47-2.24,5,5,0,0,1,.75-2.81,5.66,5.66,0,0,1,2-1.84,9.84,9.84,0,0,1,3-1,21.05,21.05,0,0,1,3.7-.31h2.41v-0.73a3.6,3.6,0,0,0-.25-1.31,3.56,3.56,0,0,0-.77-1.18,3.66,3.66,0,0,0-1.28-.84,4.86,4.86,0,0,0-1.82-.31,6.69,6.69,0,0,0-1.66.18,7.34,7.34,0,0,0-1.29.46,5.68,5.68,0,0,0-1.06.64l-0.91.69Zm9.26,6.85a23,23,0,0,0-2.39.13,9.33,9.33,0,0,0-2.22.49,4.3,4.3,0,0,0-1.64,1,2.31,2.31,0,0,0-.64,1.68,2.38,2.38,0,0,0,1,2.15,4.91,4.91,0,0,0,2.72.66,5.25,5.25,0,0,0,2.3-.46,4.31,4.31,0,0,0,1.53-1.18,4.61,4.61,0,0,0,.84-1.62,6.43,6.43,0,0,0,.25-1.77v-1.09h-1.75Z" transform="translate(-123.03 -350.71)"/><path class="b" d="M629.7,557.69H625v7.84q0,0.73,0,1.44a3.75,3.75,0,0,0,.27,1.28,2.06,2.06,0,0,0,.73.91,2.49,2.49,0,0,0,1.44.35,6.89,6.89,0,0,0,1.2-.11,3.46,3.46,0,0,0,1.13-.4v3a4.27,4.27,0,0,1-1.51.46,11.39,11.39,0,0,1-1.44.13,6.61,6.61,0,0,1-2.93-.53,3.61,3.61,0,0,1-1.53-1.37,4.42,4.42,0,0,1-.58-1.88q-0.09-1-.09-2.1v-9h-3.79v-2.84h3.79V550H625v4.85h4.7v2.84Z" transform="translate(-123.03 -350.71)"/><path class="b" d="M633.42,548.65a2.43,2.43,0,1,1,.71,1.7A2.32,2.32,0,0,1,633.42,548.65Zm0.77,6.2h3.28v17.28h-3.28V554.85Z" transform="translate(-123.03 -350.71)"/><path class="b" d="M641.84,563.49a8.8,8.8,0,0,1,.71-3.54,9.22,9.22,0,0,1,2-2.88,9.29,9.29,0,0,1,13.05,0,9.22,9.22,0,0,1,2,2.88,8.8,8.8,0,0,1,.71,3.54,9,9,0,0,1-2.66,6.43,9.26,9.26,0,0,1-2.92,1.93,9.34,9.34,0,0,1-10.14-1.93A9,9,0,0,1,641.84,563.49Zm3.5,0a7.09,7.09,0,0,0,.4,2.42,5.45,5.45,0,0,0,1.13,1.9,5.23,5.23,0,0,0,1.79,1.24,6.39,6.39,0,0,0,4.74,0,5.24,5.24,0,0,0,1.79-1.24,5.47,5.47,0,0,0,1.13-1.9,7.53,7.53,0,0,0,0-4.85,5.47,5.47,0,0,0-1.13-1.9,5.24,5.24,0,0,0-1.79-1.24,6.39,6.39,0,0,0-4.74,0,5.23,5.23,0,0,0-1.79,1.24,5.45,5.45,0,0,0-1.13,1.9A7.1,7.1,0,0,0,645.34,563.49Z" transform="translate(-123.03 -350.71)"/><path class="b" d="M664.34,554.85h3.28v2.66h0.07a4.84,4.84,0,0,1,2.15-2.24,7.13,7.13,0,0,1,3.54-.86,7.52,7.52,0,0,1,2.39.38,5.39,5.39,0,0,1,2,1.18,5.72,5.72,0,0,1,1.37,2.06,7.88,7.88,0,0,1,.51,3v11.12h-3.28V561.92a5.77,5.77,0,0,0-.33-2.06,3.77,3.77,0,0,0-.87-1.38,3.29,3.29,0,0,0-1.26-.77,4.64,4.64,0,0,0-1.48-.24,5.36,5.36,0,0,0-1.9.33,4,4,0,0,0-1.53,1,4.9,4.9,0,0,0-1,1.8,8.21,8.21,0,0,0-.36,2.59v8.9h-3.28V554.85Z" transform="translate(-123.03 -350.71)"/><path class="b" d="M694.75,544.57H698v12.94h0.07a4.84,4.84,0,0,1,2.15-2.24,7.13,7.13,0,0,1,3.54-.86,7.52,7.52,0,0,1,2.39.38,5.39,5.39,0,0,1,2,1.18,5.72,5.72,0,0,1,1.37,2.06,7.88,7.88,0,0,1,.51,3v11.12h-3.28V561.92a5.77,5.77,0,0,0-.33-2.06,3.77,3.77,0,0,0-.87-1.38,3.29,3.29,0,0,0-1.26-.77,4.64,4.64,0,0,0-1.48-.24,5.36,5.36,0,0,0-1.9.33,4,4,0,0,0-1.53,1,4.9,4.9,0,0,0-1,1.8,8.21,8.21,0,0,0-.36,2.59v8.9h-3.28V544.57Z" transform="translate(-123.03 -350.71)"/><path class="b" d="M715.09,557A9.14,9.14,0,0,1,718.3,555a11,11,0,0,1,3.65-.64,10,10,0,0,1,3.26.47,6.35,6.35,0,0,1,2.24,1.28,5,5,0,0,1,1.29,1.84,5.75,5.75,0,0,1,.42,2.17V569q0,0.91,0,1.68t0.11,1.46h-2.92q-0.11-1.31-.11-2.62h-0.07a6.29,6.29,0,0,1-2.59,2.37,8.17,8.17,0,0,1-3.46.69,7.94,7.94,0,0,1-2.3-.33,5.6,5.6,0,0,1-1.91-1,4.71,4.71,0,0,1-1.29-1.62,5,5,0,0,1-.47-2.24,5,5,0,0,1,.75-2.81,5.66,5.66,0,0,1,2-1.84,9.84,9.84,0,0,1,3-1,21.05,21.05,0,0,1,3.7-.31h2.41v-0.73a3.6,3.6,0,0,0-.25-1.31,3.56,3.56,0,0,0-.77-1.18,3.66,3.66,0,0,0-1.28-.84A4.86,4.86,0,0,0,722,557a6.69,6.69,0,0,0-1.66.18,7.34,7.34,0,0,0-1.29.46,5.68,5.68,0,0,0-1.06.64l-0.91.69Zm9.26,6.85a23,23,0,0,0-2.39.13,9.33,9.33,0,0,0-2.22.49,4.3,4.3,0,0,0-1.64,1,2.31,2.31,0,0,0-.64,1.68,2.38,2.38,0,0,0,1,2.15,4.91,4.91,0,0,0,2.72.66,5.25,5.25,0,0,0,2.3-.46A4.31,4.31,0,0,0,725,568.3a4.61,4.61,0,0,0,.84-1.62,6.43,6.43,0,0,0,.25-1.77v-1.09h-1.75Z" transform="translate(-123.03 -350.71)"/><path class="b" d="M733.43,548.65a2.43,2.43,0,1,1,.71,1.7A2.32,2.32,0,0,1,733.43,548.65Zm0.77,6.2h3.28v17.28h-3.28V554.85Z" transform="translate(-123.03 -350.71)"/><path class="b" d="M742.69,544.57H746v17.79l7.44-7.47H758l-8.06,7.84,8.75,9.41H754l-8-9v9h-3.28V544.57Z" transform="translate(-123.03 -350.71)"/><path class="b" d="M761.68,557a9.14,9.14,0,0,1,3.21-1.91,11,11,0,0,1,3.65-.64,10,10,0,0,1,3.26.47,6.35,6.35,0,0,1,2.24,1.28,5,5,0,0,1,1.29,1.84,5.75,5.75,0,0,1,.42,2.17V569q0,0.91,0,1.68t0.11,1.46H773q-0.11-1.31-.11-2.62H772.8a6.29,6.29,0,0,1-2.59,2.37,8.17,8.17,0,0,1-3.46.69,7.94,7.94,0,0,1-2.3-.33,5.6,5.6,0,0,1-1.91-1,4.71,4.71,0,0,1-1.29-1.62,5,5,0,0,1-.47-2.24,5,5,0,0,1,.75-2.81,5.66,5.66,0,0,1,2-1.84,9.84,9.84,0,0,1,3-1,21.05,21.05,0,0,1,3.7-.31h2.41v-0.73a3.6,3.6,0,0,0-.25-1.31,3.56,3.56,0,0,0-.77-1.18,3.66,3.66,0,0,0-1.28-.84,4.86,4.86,0,0,0-1.82-.31,6.69,6.69,0,0,0-1.66.18,7.34,7.34,0,0,0-1.29.46,5.68,5.68,0,0,0-1.06.64l-0.91.69Zm9.26,6.85a23,23,0,0,0-2.39.13,9.33,9.33,0,0,0-2.22.49,4.3,4.3,0,0,0-1.64,1,2.31,2.31,0,0,0-.64,1.68,2.38,2.38,0,0,0,1,2.15,4.91,4.91,0,0,0,2.72.66,5.25,5.25,0,0,0,2.3-.46,4.31,4.31,0,0,0,1.53-1.18,4.61,4.61,0,0,0,.84-1.62,6.43,6.43,0,0,0,.25-1.77v-1.09h-1.75Z" transform="translate(-123.03 -350.71)"/><path class="b" d="M793.15,564.69a4.33,4.33,0,0,0,.49,2.06,5.12,5.12,0,0,0,1.29,1.59,6,6,0,0,0,1.86,1,6.66,6.66,0,0,0,2.19.36,4.9,4.9,0,0,0,2.66-.71,8.56,8.56,0,0,0,2.08-1.88l2.48,1.9a9.13,9.13,0,0,1-7.66,3.54,9.54,9.54,0,0,1-3.7-.69A8.06,8.06,0,0,1,792,570a8.49,8.49,0,0,1-1.77-2.88,10.18,10.18,0,0,1-.62-3.59,9.43,9.43,0,0,1,.67-3.59,8.89,8.89,0,0,1,1.86-2.88A8.5,8.5,0,0,1,795,555.1a9.11,9.11,0,0,1,3.57-.69,8.54,8.54,0,0,1,3.88.8,7.68,7.68,0,0,1,2.61,2.1,8.27,8.27,0,0,1,1.48,2.92,12.15,12.15,0,0,1,.46,3.3v1.17H793.15Zm10.35-2.62a6.9,6.9,0,0,0-.35-2,4.4,4.4,0,0,0-.93-1.59,4.27,4.27,0,0,0-1.55-1.06,5.68,5.68,0,0,0-2.17-.38,5.27,5.27,0,0,0-2.21.46,5.35,5.35,0,0,0-1.7,1.18,5.5,5.5,0,0,0-1.08,1.62,4.47,4.47,0,0,0-.38,1.77H803.5Z" transform="translate(-123.03 -350.71)"/><path class="b" d="M828.26,572.13H825v-2.48H824.9a6.25,6.25,0,0,1-2.61,2.15,8,8,0,0,1-3.41.77,9.16,9.16,0,0,1-3.63-.69,8,8,0,0,1-2.77-1.93,8.72,8.72,0,0,1-1.77-2.88,10,10,0,0,1-.62-3.57,10.16,10.16,0,0,1,.62-3.59,8.49,8.49,0,0,1,1.77-2.88,8.15,8.15,0,0,1,2.77-1.91,9.16,9.16,0,0,1,3.63-.69,8,8,0,0,1,3.5.78,6,6,0,0,1,2.52,2.13H825V544.57h3.28v27.56Zm-9-2.62a5.92,5.92,0,0,0,2.37-.46,5.24,5.24,0,0,0,1.79-1.24,5.47,5.47,0,0,0,1.13-1.9,7.53,7.53,0,0,0,0-4.85,5.47,5.47,0,0,0-1.13-1.9,5.24,5.24,0,0,0-1.79-1.24,6.39,6.39,0,0,0-4.74,0,5.23,5.23,0,0,0-1.79,1.24,5.45,5.45,0,0,0-1.13,1.9,7.53,7.53,0,0,0,0,4.85,5.45,5.45,0,0,0,1.13,1.9,5.23,5.23,0,0,0,1.79,1.24A5.92,5.92,0,0,0,819.29,569.5Z" transform="translate(-123.03 -350.71)"/><path class="b" d="M832.7,548.65a2.43,2.43,0,1,1,.71,1.7A2.32,2.32,0,0,1,832.7,548.65Zm0.77,6.2h3.28v17.28h-3.28V554.85Z" transform="translate(-123.03 -350.71)"/><path class="b" d="M851.22,557.69h-4.7v7.84q0,0.73,0,1.44a3.75,3.75,0,0,0,.27,1.28,2.06,2.06,0,0,0,.73.91,2.49,2.49,0,0,0,1.44.35,6.89,6.89,0,0,0,1.2-.11,3.46,3.46,0,0,0,1.13-.4v3a4.27,4.27,0,0,1-1.51.46,11.39,11.39,0,0,1-1.44.13,6.61,6.61,0,0,1-2.93-.53,3.61,3.61,0,0,1-1.53-1.37,4.42,4.42,0,0,1-.58-1.88q-0.09-1-.09-2.1v-9h-3.79v-2.84h3.79V550h3.28v4.85h4.7v2.84Z" transform="translate(-123.03 -350.71)"/><path class="b" d="M854.62,563.49a8.8,8.8,0,0,1,.71-3.54,9.22,9.22,0,0,1,2-2.88,9.29,9.29,0,0,1,13.05,0,9.22,9.22,0,0,1,2,2.88,8.8,8.8,0,0,1,.71,3.54,9,9,0,0,1-2.66,6.43,9.26,9.26,0,0,1-2.92,1.93,9.34,9.34,0,0,1-10.14-1.93A9,9,0,0,1,854.62,563.49Zm3.5,0a7.09,7.09,0,0,0,.4,2.42,5.45,5.45,0,0,0,1.13,1.9,5.23,5.23,0,0,0,1.79,1.24,6.39,6.39,0,0,0,4.74,0,5.24,5.24,0,0,0,1.79-1.24,5.47,5.47,0,0,0,1.13-1.9,7.53,7.53,0,0,0,0-4.85,5.47,5.47,0,0,0-1.13-1.9,5.24,5.24,0,0,0-1.79-1.24,6.39,6.39,0,0,0-4.74,0,5.23,5.23,0,0,0-1.79,1.24,5.45,5.45,0,0,0-1.13,1.9A7.1,7.1,0,0,0,858.12,563.49Z" transform="translate(-123.03 -350.71)"/><path class="b" d="M877.11,554.85h3.28v2.66h0.07a4.71,4.71,0,0,1,.88-1.26,5.9,5.9,0,0,1,1.22-1,6.44,6.44,0,0,1,1.48-.64,5.63,5.63,0,0,1,1.6-.24,4.6,4.6,0,0,1,1.46.22L887,558.17q-0.4-.11-0.8-0.18a4.45,4.45,0,0,0-.8-0.07,4.83,4.83,0,0,0-3.68,1.35,5.93,5.93,0,0,0-1.28,4.19v8.68h-3.28V554.85Z" transform="translate(-123.03 -350.71)"/></svg>