<svg xmlns="http://www.w3.org/2000/svg" viewBox="0 0 408.61 157.82"><defs><style>.a,.d{fill:#b4aad0;}.a{opacity:0.5;}.b,.g,.h{fill:#8e5b97;}.c{fill:#edf0f0;}.e{fill:#fff;}.f{fill:#50a464;}.g{font-size:115.12px;}.g,.h{font-family:Avenir;}.h{font-size:19.47px;}</style></defs><title>akebi</title><path class="a" d="M288.31,234.5a2.6,2.6,0,0,0-.2-0.28l0.12,0.14a8.62,8.62,0,0,1,1,1.29,4.4,4.4,0,0,0,1.37,1.35l0.15,0.12a23.55,23.55,0,0,1,5.23,5.46c0.08,0.12.19,0.27,0.32,0.44a8.25,8.25,0,0,1,1.94,5.75,8.56,8.56,0,0,1-2,4.8l-0.09.13c0,0.07,0,.15,0,0.24s0.27,0.52.37,0.69a17.1,17.1,0,0,1,1,2.15,7.83,7.83,0,0,1-.87,7.86,13.36,13.36,0,0,1-.94,1.12l0.07,2.5h0a31.39,31.39,0,0,1-.25,12c3.59,5.34,5,12.32,4.06,19.84a46.74,46.74,0,0,1-10.46,23.17c-7.19,10.21-23.32,22.07-38,24.34a30.69,30.69,0,0,1-4.67.37,20.63,20.63,0,0,1-12.81-4l-0.12-.09-0.11-.1c-5-4.59-7.78-11.19-8.06-18.83-9.07-.83-16-4.26-20.1-10l-0.09-.12-0.08-.13c-4.85-8.25-5-18.59-.55-29.12,4.27-10,12.45-19.41,23-26.44a68.53,68.53,0,0,1,24.18-9.8,61.2,61.2,0,0,1,23.85-.38,31.91,31.91,0,0,1,10,3.75,9.31,9.31,0,0,1,1.16-3.91c0.09-.17.19-0.32,0.28-0.47a14.45,14.45,0,0,0-3-3L284,245.2a14.55,14.55,0,0,1-3.53-3.71h0a6.81,6.81,0,0,1-2-5l0.19-3.37M237.93,338.7c3,2.26,7.14,3,12.23,2.23,5.75-.89,12.49-3.76,19-8.08,6.05-4,11.37-9,14.58-13.57l0.08-.11,0.09-.1A40,40,0,0,0,293,299.23c0.82-6.37-.48-12.11-3.65-16.16l-1-1.31,0.41-1.61a24,24,0,0,0-.14-13.26L287.93,265l-1-1.7c-0.2-.36-0.42-0.71-0.63-1v0c-2.07-3.2-6.23-5.53-12-6.73a54.34,54.34,0,0,0-21.15.38,61.72,61.72,0,0,0-21.79,8.8c-9.5,6.31-16.8,14.65-20.56,23.47-3.6,8.45-3.57,16.58.09,22.92,2.36,3.22,7.39,7,18,7.26l3.5,0.07-0.21,3.5C231.67,330.82,235,335.94,237.93,338.7Z" transform="translate(-201.36 -199.76)"/><path class="b" d="M271.57,307.76c19-12.63,26.58-33.64,17.59-47.33-8.22-12.69-39.17-12.13-59.65,1.48s-30.37,35.84-21.44,51C219.78,329.34,255.89,320.07,271.57,307.76Z" transform="translate(-201.36 -199.76)"/><path class="c" d="M223.74,276.62c-12.66,14.23-10.83,33-10.83,33s11.54-7.84,23.32-8.59c15.78-.9,23.2-4.5,34.25-12.87s5.62-15.18,16.19-26.94c-0.61-.22-16.72-3.75-28.53-1.74C243,262.09,230.85,268.63,223.74,276.62Z" transform="translate(-201.36 -199.76)"/><path class="d" d="M267.31,287.82c5.88-4.46,7.34-8.67,9.59-13.57,1.35-2.94,9.15-10.62,5.9-10.63-1.59,0-3.49,3.88-5.61,4.24-10.2,1.73-25.34,3.52-33,8.11-8.42,5-23.86,22-28.44,28.91-2.39,3.6,10-2.45,14-4a25.37,25.37,0,0,1,7.19-1.67C250.93,298.44,257.51,295.24,267.31,287.82Z" transform="translate(-201.36 -199.76)"/><ellipse class="d" cx="245.75" cy="276.52" rx="4.31" ry="4.34" transform="translate(-242.82 309.92) rotate(-87.44)"/><ellipse class="d" cx="236.72" cy="283.96" rx="4.31" ry="4.34" transform="translate(-258.87 308.02) rotate(-87.44)"/><ellipse class="d" cx="240.28" cy="278.43" rx="4.31" ry="4.34" transform="translate(-249.96 306.29) rotate(-87.44)"/><ellipse class="d" cx="252.46" cy="276.04" rx="4.31" ry="4.34" transform="translate(-235.93 316.17) rotate(-87.44)"/><ellipse class="d" cx="256.95" cy="272.71" rx="4.31" ry="4.34" transform="translate(-228.31 317.48) rotate(-87.44)"/><ellipse class="d" cx="262.61" cy="272.18" rx="4.31" ry="4.34" transform="translate(-222.39 322.63) rotate(-87.44)"/><ellipse class="d" cx="268.11" cy="270.01" rx="4.31" ry="4.34" transform="translate(-214.96 326.05) rotate(-87.44)"/><ellipse class="d" cx="272.94" cy="269.11" rx="4.31" ry="4.34" transform="translate(-209.44 330.02) rotate(-87.44)"/><ellipse class="d" cx="278.97" cy="267.39" rx="3.77" ry="3.8" transform="translate(-201.96 334.39) rotate(-87.44)"/><ellipse class="d" cx="228.74" cy="292.62" rx="4.31" ry="4.34" transform="translate(-275.16 308.32) rotate(-87.44)"/><ellipse class="d" cx="218.8" cy="302.63" rx="3.92" ry="3.95" transform="translate(-294.65 307.94) rotate(-87.44)"/><ellipse class="d" cx="223.51" cy="298.71" rx="3.92" ry="3.95" transform="translate(-286.23 308.91) rotate(-87.44)"/><ellipse class="d" cx="231.22" cy="286.65" rx="4.31" ry="4.34" transform="translate(-266.82 305.09) rotate(-87.44)"/><ellipse class="d" cx="226.42" cy="296.83" rx="4.31" ry="4.34" transform="translate(-281.57 310.02) rotate(-87.44)"/><ellipse class="c" cx="230.31" cy="291.88" rx="3.2" ry="3.23" transform="translate(-272.92 309.18) rotate(-87.44)"/><ellipse class="c" cx="237.81" cy="285.66" rx="3.2" ry="3.23" transform="translate(-259.54 310.72) rotate(-87.44)"/><ellipse class="c" cx="245.45" cy="281.47" rx="3.2" ry="3.23" transform="translate(-248.05 314.35) rotate(-87.44)"/><ellipse class="c" cx="253.52" cy="277.19" rx="3.2" ry="3.23" transform="translate(-236.07 318.34) rotate(-87.44)"/><ellipse class="c" cx="263.63" cy="273" rx="3.2" ry="3.23" transform="translate(-222.23 324.43) rotate(-87.44)"/><ellipse class="c" cx="271.83" cy="270.18" rx="3.2" ry="3.23" transform="translate(-211.57 329.93) rotate(-87.44)"/><ellipse class="c" cx="268.76" cy="279.13" rx="3.2" ry="3.23" transform="translate(-223.44 335.4) rotate(-87.44)"/><ellipse class="c" cx="261.17" cy="283.19" rx="3.2" ry="3.23" transform="translate(-234.76 331.7) rotate(-87.44)"/><ellipse class="c" cx="253.07" cy="287.31" rx="3.2" ry="3.23" transform="translate(-246.61 327.55) rotate(-87.44)"/><ellipse class="c" cx="244.83" cy="291.89" rx="3.2" ry="3.23" transform="translate(-259.05 323.69) rotate(-87.44)"/><ellipse class="c" cx="237.32" cy="296.67" rx="3.2" ry="3.23" transform="translate(-271.01 320.75) rotate(-87.44)"/><path class="e" d="M268.53,262.29a139.91,139.91,0,0,1,14.18.82,58.4,58.4,0,0,0-5.38,10c-2.09,4.65-3.74,8.32-9,12.3C258,293.27,251.18,296.7,236,297.56h0c-7.48.47-15.35,4.6-20.88,8.2a67.4,67.4,0,0,1,3.11-12.56A43.21,43.21,0,0,1,226.36,279c7-7.85,18.78-13.67,32.36-16a60.07,60.07,0,0,1,9.81-.68m0-3.51a63.92,63.92,0,0,0-10.4.73c-15.15,2.57-27.28,9.11-34.4,17.11-8.23,9.25-11.17,21.9-12.23,29.62a3.08,3.08,0,0,0,4.78,3c5-3.35,12.8-7.68,19.94-8.13,15.78-.9,23.2-4.5,34.25-12.87,9.72-7.37,8.72-14.13,15.54-23.67a3.06,3.06,0,0,0-2.17-4.82,143.13,143.13,0,0,0-15.32-.92h0Z" transform="translate(-201.36 -199.76)"/><path class="b" d="M286.5,321.22c12.44-15.08,13.4-34.17,2.63-43.15-9.89-8.35-35.11-.19-48.5,16.07s-16,36.92-4.86,47.15C249.44,351.79,276.72,335.21,286.5,321.22Z" transform="translate(-201.36 -199.76)"/><path class="c" d="M239.56,307.62c-6.83,14.81-.65,29.75-0.65,29.75s7.5-9.3,17-12.84c12.71-4.66,17.89-9.47,24.85-19.07s0.82-13.83,6.55-26.1c-0.56,0-14.63,1.09-23.8,5.68C251.71,290.92,243.4,299.3,239.56,307.62Z" transform="translate(-201.36 -199.76)"/><path class="d" d="M278,305.94c3.71-5.11,3.85-8.93,4.48-13.51,0.37-2.74,4.85-11,2.18-10.18-1.3.39-1.89,4-3.54,4.87-7.92,4-19.89,9.19-25,14.87-5.65,6.21-14.06,24-16.1,30.77-1.06,3.55,7.55-4.48,10.51-6.75a21.72,21.72,0,0,1,5.48-3.16C267.27,318.72,271.87,314.46,278,305.94Z" transform="translate(-201.36 -199.76)"/><ellipse class="d" cx="257.56" cy="302.05" rx="3.72" ry="3.69" transform="translate(-268.17 -126.53) rotate(-14.35)"/><ellipse class="d" cx="252.03" cy="310.39" rx="3.72" ry="3.69" transform="translate(-270.41 -127.64) rotate(-14.35)"/><ellipse class="d" cx="253.56" cy="304.98" rx="3.72" ry="3.69" transform="translate(-269.02 -127.43) rotate(-14.35)"/><ellipse class="d" cx="262.95" cy="299.99" rx="3.72" ry="3.69" transform="translate(-267.49 -125.26) rotate(-14.35)"/><ellipse class="d" cx="265.8" cy="296.14" rx="3.72" ry="3.69" transform="translate(-266.45 -124.67) rotate(-14.35)"/><ellipse class="d" cx="270.3" cy="294.31" rx="3.72" ry="3.69" transform="translate(-265.86 -123.61) rotate(-14.35)"/><ellipse class="d" cx="274.27" cy="291.16" rx="3.72" ry="3.69" transform="translate(-264.95 -122.73) rotate(-14.35)"/><ellipse class="d" cx="278" cy="289.21" rx="3.72" ry="3.69" transform="translate(-264.35 -121.86) rotate(-14.35)"/><ellipse class="d" cx="282.51" cy="286.3" rx="3.25" ry="3.23" transform="translate(-263.49 -120.84) rotate(-14.35)"/><ellipse class="d" cx="247.64" cy="319.48" rx="3.72" ry="3.69" transform="translate(-272.8 -128.44) rotate(-14.35)"/><ellipse class="d" cx="241.99" cy="330.15" rx="3.38" ry="3.36" transform="translate(-275.62 -129.51) rotate(-14.35)"/><ellipse class="d" cx="244.87" cy="325.77" rx="3.38" ry="3.36" transform="translate(-274.44 -128.93) rotate(-14.35)"/><ellipse class="d" cx="248.19" cy="313.97" rx="3.72" ry="3.69" transform="translate(-271.42 -128.48) rotate(-14.35)"/><ellipse class="d" cx="246.79" cy="323.5" rx="3.72" ry="3.69" transform="translate(-273.82 -128.53) rotate(-14.35)"/><ellipse class="c" cx="248.74" cy="318.48" rx="2.76" ry="2.74" transform="translate(-272.52 -128.2) rotate(-14.35)"/><ellipse class="c" cx="253.34" cy="311.52" rx="2.76" ry="2.74" transform="translate(-270.65 -127.28) rotate(-14.35)"/><ellipse class="c" cx="258.55" cy="306.18" rx="2.76" ry="2.74" transform="translate(-269.17 -126.15) rotate(-14.35)"/><ellipse class="c" cx="264.1" cy="300.67" rx="2.76" ry="2.74" transform="translate(-267.63 -124.95) rotate(-14.35)"/><ellipse class="c" cx="271.34" cy="294.72" rx="2.76" ry="2.74" transform="translate(-265.93 -123.34) rotate(-14.35)"/><ellipse class="c" cx="277.36" cy="290.37" rx="2.76" ry="2.74" transform="translate(-264.66 -121.99) rotate(-14.35)"/><ellipse class="c" cx="277.07" cy="298.46" rx="2.76" ry="2.74" transform="translate(-266.67 -121.81) rotate(-14.35)"/><ellipse class="c" cx="271.86" cy="303.68" rx="2.76" ry="2.74" transform="translate(-268.13 -122.93) rotate(-14.35)"/><ellipse class="c" cx="266.25" cy="309.07" rx="2.76" ry="2.74" transform="translate(-269.64 -124.15) rotate(-14.35)"/><ellipse class="c" cx="260.64" cy="314.87" rx="2.76" ry="2.74" transform="translate(-271.25 -125.36) rotate(-14.35)"/><ellipse class="c" cx="255.67" cy="320.66" rx="2.76" ry="2.74" transform="translate(-272.84 -126.41) rotate(-14.35)"/><path class="e" d="M285.24,282.24h0m-1.45.28a52.4,52.4,0,0,0-1.69,8.8c-0.54,4.26-1,7.62-4.21,12.08-3.72,5.13-6.5,8.23-9.61,10.7-3.46,2.75-7.66,5-13.61,7.14h0c-5.72,2.14-10.89,7-14.54,11.2a56.57,56.57,0,0,1-.42-9.86,36.5,36.5,0,0,1,3.07-13.5c3.72-8.07,11.85-15.69,22.3-20.91,5.62-2.81,14.15-4.75,18.74-5.66m1.31-3.78a2.73,2.73,0,0,0-.5,0c-5.57,1-14.91,3.14-21.12,6.24-11.77,5.88-20.08,14.26-23.92,22.58-4.44,9.63-3.7,20.72-2.65,27.31a2.64,2.64,0,0,0,4.65,1.23c3.28-4,8.57-9.48,14.31-11.63,12.71-4.66,17.89-9.47,24.85-19.07,6.13-8.45,3.62-13.75,6.84-23.26a2.62,2.62,0,0,0-2.48-3.45h0Z" transform="translate(-201.36 -199.76)"/><path class="f" d="M289.86,265h-0.53l0-1.91-0.74,0a2.82,2.82,0,0,1,1-2.32l0.09-.08c0.21-.26.43-0.5,0.65-0.73a9,9,0,0,0,.64-0.73c0.15-.2.23-0.32,0-1a10.79,10.79,0,0,0-.64-1.28,7.9,7.9,0,0,1-1.26-3.85,6.93,6.93,0,0,1,.76-3.84,10,10,0,0,1,.76-1.13,2.51,2.51,0,0,0,.54-0.91,1.36,1.36,0,0,0-.51-1c-0.19-.25-0.39-0.52-0.61-0.86a17.2,17.2,0,0,0-3.71-3.78l-0.15-.12a11.19,11.19,0,0,1-2.94-3.12L283,238a3.5,3.5,0,0,1-1.17-2.56l3.77,0.21a1,1,0,0,0-.11-0.53,4,4,0,0,0,.28.33,5.45,5.45,0,0,1,.64.8,7.58,7.58,0,0,0,2.11,2.19l0.15,0.12a20.52,20.52,0,0,1,4.51,4.67c0.14,0.22.3,0.42,0.46,0.64a4.94,4.94,0,0,1,1.27,3.53,5.32,5.32,0,0,1-1.29,3,6.86,6.86,0,0,0-.49.71,3.43,3.43,0,0,0-.28,1.91,4.49,4.49,0,0,0,.78,2.11,14.06,14.06,0,0,1,.86,1.74,4.53,4.53,0,0,1-.44,4.63,12.15,12.15,0,0,1-.91,1.06c-0.18.2-.35,0.38-0.48,0.54l-0.24.27,0,1.15-1.48.38A4.38,4.38,0,0,1,289.86,265Z" transform="translate(-201.36 -199.76)"/><text class="g" transform="translate(127.15 110.74)">akebi</text><text class="h" transform="translate(131.48 141.98)">second generation haika editor</text></svg>